<svg width="386" height="254" viewBox="0 0 386 254" fill="none" xmlns="http://www.w3.org/2000/svg">
<path d="M8.5533 5.93329C4.95191 9.32283 1.56237 14.4071 0.714982 17.1611C0.0794424 19.9151 -0.132404 66.5214 0.0794424 120.754L0.714982 219.263H17.6627H34.6104L40.5421 208.247C51.77 187.274 72.1072 173.716 92.4445 173.716C110.875 173.716 129.094 187.274 138.415 207.823L143.923 220.322H178.878C198.791 220.322 215.739 219.474 218.069 218.203C228.238 212.695 228.45 209.73 228.45 111.221C228.45 33.4733 228.026 17.7967 225.272 12.7124C218.493 -0.422107 222.094 0.0015862 113.841 0.0015862H14.9087L8.5533 5.93329Z" fill="#0A8B38"/>
<path d="M243.279 129.016V220.322H252.812H262.345L267.853 208.035C276.963 187.062 291.156 176.47 312.341 174.351C321.662 173.292 325.476 174.139 335.221 178.8C348.567 185.367 354.922 192.994 360.007 208.458L363.396 219.263H373.777H384.157L384.793 166.937L385.216 114.61L375.259 113.975L365.303 113.339L362.761 98.5102C359.795 80.2914 353.863 68.2161 342.635 56.9883C327.594 41.9472 319.332 39.6169 278.869 38.5576L243.279 37.7102V129.016ZM246.881 74.5715C246.457 79.6558 246.033 75.6307 246.033 65.674C246.033 55.7172 246.457 51.6921 246.881 56.5646C247.304 61.6489 247.304 69.6991 246.881 74.5715ZM310.646 70.7583C329.713 80.7151 341.152 109.738 330.136 120.754C326.535 124.355 323.145 124.991 304.715 124.991H283.53V96.3917V67.7924H294.122C300.054 67.7924 307.469 69.0635 310.646 70.7583ZM246.881 184.732C246.457 188.545 246.033 186.003 246.033 179.012C246.033 172.021 246.457 168.843 246.881 172.021C247.304 175.199 247.304 180.918 246.881 184.732ZM246.881 200.62C246.245 202.739 245.821 201.468 245.821 198.078C245.821 194.477 246.245 192.994 246.881 194.265C247.304 195.748 247.304 198.714 246.881 200.62Z" fill="#0A8B38"/>
<path d="M79.31 192.782C64.9044 197.231 54.9477 214.39 57.7017 229.643C59.8201 240.871 71.2598 251.463 83.3351 253.158C107.909 256.971 124.645 244.26 124.645 222.017C124.645 200.408 102.189 186.003 79.31 192.782Z" fill="#0A8B38"/>
<path d="M299.207 194.688C292.639 197.654 289.25 201.044 285.86 208.035C280.352 219.686 280.352 224.982 285.86 236.422C296.453 258.454 330.56 260.149 344.542 239.388C351.744 228.796 350.262 212.272 341.576 203.162C329.712 190.451 314.883 187.486 299.207 194.688Z" fill="#0A8B38"/>
<rect x="244.338" y="169.479" width="3.1777" height="33.3658" fill="#0A8B38"/>
<rect x="245.927" y="45.5486" width="3.1777" height="33.3658" fill="#0A8B38"/>
</svg>
