<svg width="1372" height="196" viewBox="0 0 1372 196" fill="none" xmlns="http://www.w3.org/2000/svg">
<path d="M5.60001 4.06666C3.33334 6.19999 1.20001 9.39999 0.666675 11.1333C0.266675 12.8667 0.133341 42.2 0.266675 76.3333L0.666675 138.333H11.3333H22L25.7333 131.4C32.8 118.2 45.6 109.667 58.4 109.667C70 109.667 81.4667 118.2 87.3333 131.133L90.8 139H112.8C125.333 139 136 138.467 137.467 137.667C143.867 134.2 144 132.333 144 70.3333C144 21.4 143.733 11.5333 142 8.33333C137.733 0.0666594 140 0.333326 71.8667 0.333326H9.60001L5.60001 4.06666Z" fill="#0A8B38"/>
<path d="M277.867 2.86663C275.6 4.19996 273.067 7.13329 272.267 9.13329C271.067 11.9333 270.667 29.6666 270.933 75.6666L271.333 138.333L282.933 138.733L294.533 139.133L298.533 131.267C307.2 114.067 323.333 106.333 340.533 111.133C347.467 113 356 121.267 361.2 131L365.467 139H383.333C393.2 139 402.667 138.467 404.533 137.667C406.4 137 409.2 134.467 410.667 132.067C413.2 127.8 413.333 125.267 413.333 70.6C413.333 7.93329 413.2 6.33329 405.467 2.46663C402 0.59996 393.333 0.333294 341.733 0.333294C285.6 0.333294 281.733 0.466627 277.867 2.86663Z" fill="#0A8B38"/>
<path d="M1071.2 9.53334C1063.87 12.7333 1060.67 22.0667 1064.53 29.5333C1069.07 38.3333 1086 38.4667 1090.67 29.8C1093.07 25.1333 1092.27 16.7333 1088.93 13C1085.6 9.13334 1076.4 7.26667 1071.2 9.53334Z" fill="#08633E"/>
<path d="M661.067 13.2666C660.8 13.8 660.667 44.6 660.667 81.6667V149L673.733 149.4L686.667 149.8L686.8 102.067V54.3333L707.733 96.7333L728.533 139.133L735.2 138.733C741.867 138.333 742 138.2 745.333 131.667C747.2 127.933 756.133 109.667 765.333 91L782 57L782.4 103.267L782.667 149.667H796H809.333V81V12.3333H792.667H775.867L756.667 51.2666C746 72.7333 737.333 91.1333 737.333 91.9333C737.333 92.8667 736.933 93.6667 736.4 93.5333C735.733 93.5333 726.4 75.4 715.333 53.2666L695.333 13L678.4 12.6C669.2 12.4666 661.333 12.7333 661.067 13.2666Z" fill="#08633E"/>
<path d="M1136.67 27L1124.67 32.0666L1124.27 40.8666L1123.87 49.6666H1115.33H1106.67V60.3333V71H1115.2H1123.73L1124.27 100.6C1124.67 127.533 1124.93 130.867 1127.47 136.467C1130.67 143.4 1136.67 148.467 1144.53 151C1150.53 152.867 1167.47 152.067 1174.4 149.667L1178.67 148.067V138.333V128.467L1169.73 129.267C1161.87 129.933 1160.27 129.667 1157.07 127.133C1151.73 122.867 1150.67 116.867 1150.67 92.6V71H1164.67H1178.67V60.3333V49.6666H1164.67H1150.67V36.4666C1150.67 29.1333 1150.27 22.8666 1149.73 22.6C1149.07 22.3333 1143.33 24.3333 1136.67 27Z" fill="#08633E"/>
<path d="M153.333 81.5333V139H159.333H165.333L168.8 131.267C174.533 118.067 183.467 111.4 196.8 110.067C202.667 109.4 205.067 109.933 211.2 112.867C219.6 117 223.6 121.8 226.8 131.533L228.933 138.333H235.467H242L242.4 105.4L242.667 72.4667L236.4 72.0667L230.133 71.6667L228.533 62.3333C226.667 50.8667 222.933 43.2667 215.867 36.2C206.4 26.7333 201.2 25.2667 175.733 24.6L153.333 24.0667V81.5333ZM155.6 47.2667C155.333 50.4667 155.067 47.9333 155.067 41.6667C155.067 35.4 155.333 32.8667 155.6 35.9333C155.867 39.1333 155.867 44.2 155.6 47.2667ZM195.733 44.8667C207.733 51.1333 214.933 69.4 208 76.3333C205.733 78.6 203.6 79 192 79H178.667V61V43H185.333C189.067 43 193.733 43.8 195.733 44.8667ZM155.6 116.6C155.333 119 155.067 117.4 155.067 113C155.067 108.6 155.333 106.6 155.6 108.6C155.867 110.6 155.867 114.2 155.6 116.6ZM155.6 126.6C155.2 127.933 154.933 127.133 154.933 125C154.933 122.733 155.2 121.8 155.6 122.6C155.867 123.533 155.867 125.4 155.6 126.6Z" fill="#0A8B38"/>
<path d="M424 81.5333V139.133L430.933 138.733L437.733 138.333L440.267 130.867C446.267 112.733 465.467 104.733 482.533 113.133C490.533 117.133 496.8 125.533 498.267 134.067L499.067 139.133L505.867 138.733L512.667 138.333V105.133V71.9333L506.667 71.8L500.667 71.6666L499.867 64.8666C497.733 47.5333 489.867 35.4 476.4 28.8666C469.333 25.4 467.6 25.1333 446.533 24.6L424 23.9333V81.5333ZM465.867 44.8666C474.267 48.3333 481.2 59 481.333 68.6C481.333 72.3333 480.533 74.2 477.867 76.2C474.8 78.6 472.4 79 461.867 79H449.333V61V43H455.333C458.667 43 463.467 43.8 465.867 44.8666Z" fill="#0A8B38"/>
<path d="M573.6 48.4666C552.4 51.9333 538.133 69.1333 535.333 94.6C534.4 103.933 537.067 118.6 541.333 127C545.6 135.4 554.133 143.8 562.4 147.933C568 150.733 572.267 151.667 580.933 152.067C591.333 152.6 592.667 152.467 600.667 148.467C605.467 146.067 610 143 610.667 141.533C614 135.4 614.667 139.8 614.667 167.133V195.4L623.733 194.6C628.667 194.067 634.667 193.667 637.067 193.667H641.333L641.067 121.933L640.667 50.3333H627.333H614L613.6 55.4L613.2 60.4666L608.133 56.4666C598.933 49.1333 586.933 46.3333 573.6 48.4666ZM601.333 72.4666C604.667 74.3333 607.733 77.8 610.133 82.2C613.333 87.9333 613.867 90.6 613.867 99.6666C614 119.8 604.533 130.467 587.733 129.4C578 128.733 571.067 124.2 566.933 115.8C558.133 98.2 565.067 74.4666 580.4 69.8C586.267 67.9333 595.333 69.1333 601.333 72.4666Z" fill="#08633E"/>
<path d="M858.533 51.3999C844.933 57.1333 836.8 64.8666 830.8 77.6666C827.733 84.1999 827.333 86.5999 827.333 100.333C827.333 115 827.467 116.067 831.733 124.6C841.2 143.8 860 153.533 884.667 151.933C898.533 151.133 908.8 147.133 917.467 139.4C930.533 127.533 935.333 115.533 934.4 96.4666C933.467 76.5999 924 61.7999 906.8 53.2666C898.667 49.2666 897.067 48.9999 882 48.5999C867.733 48.3333 865.2 48.5999 858.533 51.3999ZM888.267 69.6666C899.467 72.8666 906.667 83.2666 907.733 97.7999C908.4 108.333 906.533 114.867 900.933 121.133C895.467 127.533 890.667 129.667 882.267 129.667C864.933 129.667 855.333 120.6 853.733 102.733C852.8 92.5999 855.2 84.1999 861.2 77.5333C868.4 69.5333 877.867 66.8666 888.267 69.6666Z" fill="#08633E"/>
<path d="M991.2 51.4C987.467 53.2667 982.8 56.7333 980.933 59.1333L977.333 63.6667V56.6V49.6667H964H950.667V99.6667V149.667H964H977.333V118.6C977.333 91.4 977.733 87 979.867 82.3334C983.867 73.6667 988.133 70.6 997.2 69.9333C1007.47 69.1333 1012.67 71.9333 1016.27 79.8C1018.67 85.2667 1018.93 88.8667 1018.93 117.8V149.667H1032.8H1046.67V115.933C1046.67 79.1333 1045.47 70.7333 1039.6 61.8C1037.6 58.8667 1033.2 54.8667 1029.73 52.7333C1024.27 49.5333 1021.73 49 1010.67 48.6C999.467 48.2 997.2 48.6 991.2 51.4Z" fill="#08633E"/>
<path d="M1220.4 50.3333C1206.4 54.6 1197.07 63.1333 1190.13 77.6667C1186.4 85.5333 1186 87.5333 1186 99.6667C1186 111.8 1186.4 113.8 1190.13 121.8C1195.6 133.133 1202 140.2 1211.6 145.267C1238 159.133 1270.27 151.8 1285.2 128.6C1303.2 100.467 1290.27 61.6667 1259.2 51C1250.13 47.8 1229.33 47.5333 1220.4 50.3333ZM1246.27 69.9333C1268 75.2667 1273.87 110.2 1255.6 124.867C1250.8 128.733 1249.6 129 1240.13 129C1231.07 129 1229.07 128.6 1224.13 125.267C1214 118.467 1209.33 102.6 1213.33 88.2C1215.2 81.5333 1223.47 72.6 1230 70.3333C1236.67 67.9333 1238.67 67.9333 1246.27 69.9333Z" fill="#08633E"/>
<path d="M1350.8 51.2667C1347.33 53 1343.2 56.6 1340.8 60.0667L1336.67 65.9333L1336.27 57.8L1335.87 49.5333L1322.93 49.9333L1310 50.3333L1309.6 99.9334L1309.33 149.667H1322.53H1335.87L1336.27 120.6C1336.67 94.4667 1336.93 91.1334 1339.47 85.5334C1343.33 77.2667 1350.53 73.6667 1363.07 73.6667H1372V61V48.3333H1364.4C1359.2 48.3333 1354.8 49.2667 1350.8 51.2667Z" fill="#08633E"/>
<path d="M1064 99.6667V149.667H1078H1092V99.6667V49.6667H1078H1064V99.6667Z" fill="#08633E"/>
<path d="M50.1334 121.667C41.0667 124.467 34.8001 135.267 36.5334 144.867C37.8667 151.933 45.0667 158.6 52.6667 159.667C68.1334 162.067 78.6667 154.067 78.6667 140.067C78.6667 126.467 64.5334 117.4 50.1334 121.667Z" fill="#0A8B38"/>
<path d="M188.533 122.867C184.4 124.733 182.267 126.867 180.133 131.267C176.667 138.6 176.667 141.933 180.133 149.133C186.8 163 208.267 164.067 217.067 151C221.6 144.333 220.667 133.933 215.2 128.2C207.733 120.2 198.4 118.333 188.533 122.867Z" fill="#0A8B38"/>
<path d="M320 122.733C305.733 130.6 305.733 150.333 320 157.8C329.333 162.867 344.133 159.267 349.333 150.733C352.533 145.533 352.8 136.467 350 131C345.467 122.2 329.2 117.667 320 122.733Z" fill="#0A8B38"/>
<path d="M458.933 122.6C452 126.067 448.667 131.8 448.667 140.6C448.667 153.8 457.067 161 470.933 159.933C483.6 158.867 490.667 151.667 490.667 140.067C490.667 136.733 489.6 132.6 488 129.933C482.933 121.533 468.4 117.933 458.933 122.6Z" fill="#0A8B38"/>
<rect x="154" y="107" width="2" height="21" fill="#0A8B38"/>
<rect x="155" y="29" width="2" height="21" fill="#0A8B38"/>
</svg>
